REM DIRINDEX 1
REM DIRNAME cjc069
TITLE ""
FILE "Disk3Track04.mp3" MP3
  TRACK 01 AUDIO
    TITLE "1:cjc069_1029"
    INDEX 01 00:00:00
  TRACK 02 AUDIO
    TITLE "1:cjc069_1030"
    INDEX 01 00:15:03
  TRACK 03 AUDIO
    TITLE "1:cjc069_1031"
    INDEX 01 00:29:42
  TRACK 04 AUDIO
    TITLE "1:cjc069_1032"
    INDEX 01 00:41:14
  TRACK 05 AUDIO
    TITLE "1:cjc069_1033"
    INDEX 01 00:55:32
  TRACK 06 AUDIO
    TITLE "0:"
    INDEX 01 01:03:41
